<svg version="1.2" xmlns="http://www.w3.org/2000/svg" viewBox="0 0 262 217" width="262" height="217">
    <defs>
        <clipPath clipPathUnits="userSpaceOnUse" id="cp1">
            <path d="m118.45 45.73c21.2 0 45.53 7.44 57.77 11.97 23.84 8.84 13.17 57.34 7 60.34-6.17 3-10.39 4.18-10.39 4.18 0 0-16.3 6.61-48-4.55-25-8.8-44.44 0.55-44.44 0.55 0 0-4 1.81-0.84-43.68 1.55-22.14 18.82-28.81 38.9-28.81z"/>
        </clipPath>
        <clipPath clipPathUnits="userSpaceOnUse" id="cp2">
            <path d="m0 0h261.33v216.15h-261.33z"/>
        </clipPath>
        <clipPath clipPathUnits="userSpaceOnUse" id="cp3">
            <path d="m0 0h261.33v216.15h-261.33z"/>
        </clipPath>
    </defs>
    <style>
        .a{fill:#781000}.d{fill:#0d9331}
    </style>
    <!-- construtora: begin -->
    <g id="construtora">
    <path class="a" d="m102.1 163.8h-0.2q-0.1-0.8-0.6-1.1-0.5-0.3-1.2-0.3-0.3 0-0.8 0.1-0.4 0.2-0.7 0.5-0.4 0.3-0.6 0.8-0.3 0.6-0.3 1.3 0.1 1.4 0.8 2.2 0.7 0.8 1.7 0.9 0.7 0 1.2-0.5 0.4-0.4 0.5-1h0.2l-0.2 1.3q-0.3 0.1-0.8 0.3-0.6 0.1-1 0.1-1.5 0-2.4-0.9-0.8-0.9-0.8-2.3 0-1.4 0.9-2.2 1-0.9 2.3-0.9 1 0 1.9 0.5z"/>
    <path fill-rule="evenodd" class="a" d="m103.1 165.3q0.1-1.2 0.9-2.2 0.8-1 2.2-1 1.3 0 2.1 0.9 0.9 1 0.9 2.2 0 1.3-0.8 2.2-0.8 1-2.3 1-1.2 0-2.1-0.9-0.8-0.9-0.9-2.2zm1-0.2q0 1 0.5 2 0.3 0.5 0.7 0.8 0.4 0.3 0.9 0.3 1-0.1 1.5-0.8 0.5-0.7 0.6-1.9 0-1.1-0.6-2.1-0.3-0.4-0.7-0.7-0.4-0.3-0.9-0.3-1 0-1.5 0.7-0.5 0.7-0.5 2z"/>
    <path class="a" d="m116 168.4h-0.2l-4.4-5v3.2q0 0.9 0.2 1.2 0.1 0.3 0.8 0.3v0.2q-0.6 0-1.1 0-0.6 0-1.1 0v-0.2q0.2 0 0.3 0 0.2-0.1 0.3-0.2 0.1-0.1 0.2-0.3 0.1-0.2 0.1-0.6v-3.5q0-1.1-1.1-1v-0.3q0.4 0.1 0.8 0.1 0.3 0 0.7-0.1 0.3 0.4 0.8 1 0.6 0.6 1.3 1.5 0.5 0.6 1.1 1.2 0.5 0.6 1 1.1v-3.5q0-0.6-0.2-0.8-0.2-0.3-0.9-0.2v-0.3q0.6 0.1 1.2 0.1 0.5 0 1-0.1v0.3q-0.4-0.1-0.6 0.1-0.1 0.1-0.2 0.2 0 0.2 0 0.6z"/>
    <path class="a" d="m117.5 166.9h0.2q0.1 0.5 0.5 0.8 0.3 0.4 0.8 0.5 0.5 0 0.9-0.4 0.3-0.3 0.3-0.8 0-0.3-0.1-0.5-0.1-0.2-0.3-0.4-0.2-0.2-0.4-0.3-0.2-0.1-0.5-0.2-0.2-0.2-0.4-0.3-0.2-0.2-0.4-0.4-0.2-0.2-0.3-0.4-0.1-0.3-0.1-0.7 0-0.8 0.5-1.3 0.5-0.4 1.3-0.4 0.3 0 0.5 0 0.3 0.1 0.5 0.1l0.2 1.2h-0.2q-0.2-1-1.1-1-0.5 0-0.8 0.3-0.2 0.3-0.2 0.8 0 0.3 0.1 0.5 0.1 0.2 0.3 0.4 0.2 0.1 0.4 0.3 0.2 0.1 0.5 0.2 0.2 0.2 0.4 0.3 0.3 0.2 0.5 0.4 0.1 0.1 0.3 0.4 0.1 0.3 0.1 0.7-0.1 0.8-0.7 1.3-0.5 0.4-1.3 0.4-0.7 0-1.3-0.3z"/>
    <path class="a" d="m126.9 163.4h-0.2q0-0.2-0.1-0.4 0 0 0-0.1 0 0 0-0.1-0.1-0.1-0.2-0.2-0.2 0-0.4 0h-1.3v4.9q0 0.2 0.1 0.3 0 0.1 0.1 0.2 0.1 0 0.3 0 0.1 0.1 0.3 0.1v0.2q-0.6 0-1.2 0-0.6 0-1.2 0v-0.2q0.2 0 0.3-0.1 0.2 0 0.3 0 0.1-0.1 0.1-0.2 0.1-0.1 0.1-0.3v-4.9h-1.1q-0.6 0-0.7 0.2-0.1 0.1-0.2 0.2 0 0.2-0.1 0.4h-0.2l0.1-1.4h0.2q0.1 0.2 0.2 0.2 0.1 0 0.3 0h3.8q0.5 0 0.6-0.2h0.2z"/>
    <path fill-rule="evenodd" class="a" d="m129.2 165.4v2.1q0 0.2 0 0.3 0.1 0.1 0.2 0.2 0.1 0 0.2 0 0.2 0.1 0.3 0.1v0.2q-0.6 0-1.1 0-0.6 0-1.2 0v-0.2q0.3 0 0.5-0.1 0.2-0.1 0.2-0.5v-4.4q0-0.5-0.2-0.6-0.1 0-0.2 0-0.1 0-0.3 0v-0.3q0.7 0.1 1.3 0.1 0.3 0 1.1-0.1 0.6 0 1 0.2 0.3 0.1 0.6 0.4 0.2 0.2 0.3 0.5 0 0.2 0 0.5 0 0.5-0.3 0.9-0.2 0.2-0.4 0.3-0.2 0.2-0.5 0.3 1.1 1.7 1.6 2.2 0.2 0.3 0.4 0.4 0.2 0.2 0.5 0.2v0.2q-0.3 0-0.6 0-0.4 0-0.7 0-1.1-1.3-2-2.9zm1.9-1.6q0-0.6-0.3-0.9-0.3-0.4-1.1-0.4-0.3 0-0.5 0.1v2.5q0.2 0.1 0.5 0.1 0.8-0.1 1.1-0.5 0.3-0.4 0.3-0.9z"/>
    <path class="a" d="m139.3 162.5q-0.5-0.1-0.6 0.3-0.1 0.1-0.1 0.4 0 0.2 0 0.7v2.5q0 0.9-0.5 1.4-0.6 0.6-1.7 0.6-2.1 0-2.2-2.1v-3.2q0-0.5-0.3-0.6-0.1 0-0.2 0-0.1 0-0.3 0v-0.3q0.6 0.1 1.2 0.1 0.5 0 1.1-0.1v0.3q-0.1 0-0.3 0-0.1 0-0.2 0-0.1 0.1-0.2 0.2 0 0.1 0 0.4v2.9q0 0.4 0.1 0.8 0 0.3 0.2 0.6 0.4 0.7 1.3 0.7 0.5 0 0.9-0.2 0.3-0.2 0.4-0.5 0.2-0.2 0.2-0.5 0.1-0.3 0.1-0.5v-2.5q0-1-0.2-1.3 0-0.1-0.2-0.1-0.2-0.1-0.4 0v-0.3q0.5 0.1 1 0.1 0.4 0 0.9-0.1z"/>
    <path class="a" d="m145 163.4h-0.3q0-0.2 0-0.4 0 0 0-0.1 0 0 0-0.1-0.1-0.1-0.2-0.2-0.2 0-0.4 0h-1.3v4.9q0 0.2 0.1 0.3 0 0.1 0.1 0.2 0.1 0 0.2 0 0.2 0.1 0.4 0.1v0.2q-0.6 0-1.2 0-0.6 0-1.2 0v-0.2q0.2 0 0.3-0.1 0.1 0 0.2 0 0.2-0.1 0.2-0.2 0.1-0.1 0.1-0.3v-4.9h-1.1q-0.6 0-0.7 0.2-0.1 0.1-0.2 0.2 0 0.2-0.1 0.4h-0.2l0.1-1.4h0.2q0 0.2 0.2 0.2 0.1 0 0.3 0h3.8q0.5 0 0.6-0.2h0.1z"/>
    <path fill-rule="evenodd" class="a" d="m145.5 165.3q0-1.2 0.9-2.2 0.8-1 2.2-1 1.2 0 2.1 0.9 0.8 1 0.9 2.2-0.1 1.3-0.9 2.2-0.8 1-2.2 1-1.3 0-2.1-0.9-0.9-0.9-0.9-2.2zm0.9-0.2q0 1 0.6 2 0.3 0.5 0.7 0.8 0.4 0.3 0.9 0.3 1-0.1 1.5-0.8 0.5-0.7 0.5-1.9 0-1.1-0.5-2.1-0.3-0.4-0.7-0.7-0.4-0.3-1-0.3-0.9 0-1.4 0.7-0.6 0.7-0.6 2z"/>
    <path fill-rule="evenodd" class="a" d="m154.2 165.4v2.1q0 0.2 0 0.3 0.1 0.1 0.2 0.2 0.1 0 0.2 0 0.2 0.1 0.3 0.1v0.2q-0.6 0-1.1 0-0.6 0-1.2 0v-0.2q0.3 0 0.5-0.1 0.2-0.1 0.2-0.5v-4.4q0-0.5-0.2-0.6-0.1 0-0.2 0-0.1 0-0.3 0v-0.3q0.7 0.1 1.3 0.1 0.3 0 1.1-0.1 0.6 0 1 0.2 0.4 0.1 0.6 0.4 0.2 0.2 0.3 0.5 0 0.2 0 0.5 0 0.5-0.3 0.9-0.2 0.2-0.4 0.3-0.2 0.2-0.5 0.3 1.1 1.7 1.6 2.2 0.2 0.3 0.4 0.4 0.2 0.2 0.5 0.2v0.2q-0.3 0-0.6 0-0.4 0-0.7 0-1.1-1.3-2-2.9zm1.9-1.6q0-0.6-0.3-0.9-0.3-0.4-1.1-0.4-0.3 0-0.5 0.1v2.5q0.2 0.1 0.5 0.1 0.8-0.1 1.1-0.5 0.3-0.4 0.3-0.9z"/>
    <path fill-rule="evenodd" class="a" d="m163.3 166.6q0.1 0.3 0.3 0.7 0.1 0.4 0.2 0.5 0.1 0.2 0.3 0.2 0.2 0.1 0.4 0.1v0.2q-0.5 0-1 0-0.6 0-1.2 0v-0.2h0.1q0.2 0 0.3-0.1 0.2 0 0.2-0.2 0-0.2-0.1-0.5l-0.5-1.3h-1.9l-0.2 0.6q-0.1 0.3-0.2 0.6 0 0.1 0 0.2 0 0.2 0 0.3 0 0.1 0 0.2 0.1 0.1 0.1 0.1 0.1 0.1 0.2 0.1 0.1 0 0.2 0h0.2v0.2q-0.5 0-1 0-0.5 0-1 0v-0.2q0.4-0.1 0.5-0.2 0.2-0.1 0.3-0.4 0.2-0.5 0.4-1l1-3.1q0.1-0.2 0.2-0.4 0-0.2 0-0.4 0-0.1 0-0.2 0.1-0.1 0.3-0.2 0.1-0.1 0.2-0.2h0.1zm-2.8-0.9h1.7l-0.9-2.6z"/>
    <path class="a" d="m167.4 166.4v-0.9c7.5 0 27.3 0.4 27.3 0.4 0 0-19.8 0.5-27.3 0.5z"/>
    <path class="a" d="m66.6 165.9c0 0 19.9-0.4 27.4-0.4v0.9c-7.5 0-27.4-0.5-27.4-0.5z"/>
    </g><!-- construtora: end -->
    <text id="confidence" style="transform:matrix(1.45,0,0,1.333,65.778,156.655)">
        <tspan x="0" y="0" style="font-size:14px;fill:#781000;font-family:&quot;' Sabon Roman SC'&quot;;white-space:pre">CONFIDENCE</tspan>
    </text>
    <g id="content">
        <g clip-path="url(#cp1)">
            <path d="m172 93.3c0 22.9-18.5 41.4-41.3 41.4-22.9 0-41.4-18.5-41.4-41.4 0-22.8 18.5-41.3 41.4-41.3 22.8 0 41.3 18.5 41.3 41.3z" style="fill:#e36a13"/>
        </g>
        <g clip-path="url(#cp2)">
            <path class="d" d="m80.4 119.6c0 0 19.4-9.4 44.4-0.6 31.7 11.2 48 4.6 48 4.6 0 0-20.7 10.1-46.2-0.6-27.8-11.7-46.2-3.4-46.2-3.4z"/>
            <path class="d" d="m83.5 120.6c0 0 22.3-6.2 41.8 5.4 22.3 13.3 55.6-3 55.6-3 0 0-31.8 22.2-54.3 9.3-6.8-3.9-12-8.2-17.5-10-15-4.8-25.6-1.7-25.6-1.7z"/>
            <path class="d" d="m86.6 121.6c0 0 15.3-2.5 25 5.2 9.8 7.6 14.4 10.2 25.1 11.4 0 0-17.3 0.8-28.3-10.6-7.6-7.7-21.8-6-21.8-6z"/>
            <path class="d" d="m104.2 127.9c3.6 4.1 9 6.5 9 6.5 0 0-7.6-2.2-11.9-6.8-4.8-5.1-12-5.1-12-5.1 0 0 9.9-0.4 14.9 5.4z"/>
        </g>
        <g clip-path="url(#cp3)">
            <path class="a" d="m122.8 92.2l21.1 3.8v6.6h2v-11.6h5.8v6l7.9 1.3 7.8 11.3c-7.8 10.4-28.8 3.3-28.8 3.3l-15.2-18.5-12.1 15.8z"/>
            <path class="a" d="m107.5 96.6l-11.4 15.6 10.9-17h12.9l-5.6 7.2z"/>
            <path class="a" d="m122.8 105h-3.2v-3.7h3.2z"/>
            <path class="a" d="m126.6 105h-3.3v-3.7h3.3z"/>
            <path class="a" d="m122.8 109.2h-3.2v-3.8h3.2z"/>
            <path class="a" d="m126.6 109.2h-3.3v-3.8h3.3z"/>
            <path class="a" d="m106.8 103.8h-1.7v-2.5h1.7z"/>
            <path class="a" d="m108.8 103.8h-1.6v-2.5h1.6z"/>
            <path class="a" d="m106.8 106.7h-1.7v-2.5h1.7z"/>
            <path class="a" d="m108.8 106.7h-1.6v-2.5h1.6z"/>
        </g>
    </g>
</svg>
